<svg width="159" height="44" fill="#7653FC" xmlns="http://www.w3.org/2000/svg"><path d="M71.14 23.695c0 2.22-.37 4.16-1.11 5.82-.72 1.64-1.83 2.92-3.33 3.84-1.5.92-3.42 1.38-5.76 1.38-2.32 0-4.24-.46-5.76-1.38-1.5-.92-2.62-2.21-3.36-3.87-.72-1.66-1.08-3.6-1.08-5.82s.36-4.15 1.08-5.79c.74-1.64 1.86-2.91 3.36-3.81 1.52-.92 3.45-1.38 5.79-1.38 2.32 0 4.23.46 5.73 1.38 1.5.9 2.61 2.18 3.33 3.84.74 1.64 1.11 3.57 1.11 5.79zm-15.63 0c0 2.24.43 4.01 1.29 5.31.86 1.28 2.24 1.92 4.14 1.92 1.94 0 3.33-.64 4.17-1.92.84-1.3 1.26-3.07 1.26-5.31 0-2.26-.42-4.03-1.26-5.31-.84-1.28-2.22-1.92-4.14-1.92-1.92 0-3.31.64-4.17 1.92-.86 1.28-1.29 3.05-1.29 5.31zm46.084-10.68l-5.46 21.42h-5.16l-2.91-11.25c-.06-.22-.14-.55-.24-.99-.08-.44-.18-.92-.3-1.44-.1-.52-.19-1.01-.27-1.47-.08-.48-.14-.85-.18-1.11-.02.26-.08.63-.18 1.11-.08.46-.17.95-.27 1.47-.1.5-.2.98-.3 1.44-.1.44-.18.78-.24 1.02l-2.88 11.22h-5.16l-5.46-21.42h4.47l2.73 11.7c.12.46.25 1.04.39 1.74s.27 1.4.39 2.1c.12.7.21 1.29.27 1.77.06-.5.15-1.09.27-1.77.12-.7.24-1.37.36-2.01.14-.66.26-1.17.36-1.53l3.12-12h4.29l3.12 12c.1.34.21.84.33 1.5a52.947 52.947 0 01.66 3.81c.06-.5.15-1.09.27-1.77.12-.7.25-1.4.39-2.1.16-.7.29-1.28.39-1.74l2.73-11.7h4.47zm2.694 21.42v-21.42h4.53v17.67h8.7v3.75h-13.23zM128.352 32.835c.368 0 .704-.024 1.008-.072.32-.048.608-.12.864-.216v.792a5.586 5.586 0 01-.864.24c-.32.064-.68.096-1.08.096-1.104 0-1.896-.312-2.376-.936-.48-.624-.72-1.536-.72-2.736v-8.472h-1.92v-.624l1.92-.216.288-3.072h.648v3.096h4.032v.816h-4.032v8.4c0 .944.16 1.664.48 2.16.336.496.92.744 1.752.744zm15.051-5.76c0 1.28-.208 2.416-.624 3.408-.4.992-1.016 1.776-1.848 2.352-.832.56-1.872.84-3.12.84-1.2 0-2.216-.28-3.048-.84-.816-.56-1.44-1.336-1.872-2.328-.416-.992-.624-2.136-.624-3.432 0-2.032.496-3.64 1.488-4.824 1.008-1.184 2.4-1.776 4.176-1.776 1.264 0 2.296.288 3.096.864.8.576 1.392 1.36 1.776 2.352.4.992.6 2.12.6 3.384zm-10.176 0c0 1.712.376 3.104 1.128 4.176.752 1.056 1.904 1.584 3.456 1.584 1.072 0 1.952-.24 2.64-.72.688-.496 1.192-1.176 1.512-2.04.32-.864.48-1.864.48-3 0-1.088-.152-2.064-.456-2.928-.304-.864-.792-1.552-1.464-2.064-.656-.512-1.52-.768-2.592-.768-1.52 0-2.688.512-3.504 1.536-.8 1.008-1.2 2.416-1.2 4.224zm19.225-6.6c1.664 0 2.936.552 3.816 1.656.896 1.104 1.344 2.72 1.344 4.848 0 2.144-.472 3.8-1.416 4.968-.944 1.152-2.256 1.728-3.936 1.728-1.2 0-2.16-.272-2.88-.816-.704-.544-1.2-1.2-1.488-1.968h-.048c.016.48.024.976.024 1.488.016.496.024.976.024 1.44v5.232h-.912V20.715h.768l.096 2.784h.048a4.496 4.496 0 01.888-1.464c.4-.464.904-.84 1.512-1.128.608-.288 1.328-.432 2.16-.432zm-.072.84c-1.488 0-2.608.496-3.36 1.488-.736.976-1.112 2.368-1.128 4.176v.144c0 1.936.376 3.376 1.128 4.32.752.928 1.816 1.392 3.192 1.392 1.408 0 2.496-.504 3.264-1.512.784-1.008 1.176-2.456 1.176-4.344 0-3.776-1.424-5.664-4.272-5.664zM41 1.744a1.19 1.19 0 00-1.201-1.18 1.19 1.19 0 00-1.201 1.18c0 1.279-1.137 2.359-2.483 2.359h-5.418c-3.09-1.544-6.608-2.359-10.197-2.359-3.59 0-7.108.815-10.197 2.359H4.9c-1.353 0-2.497-1.08-2.497-2.36a1.19 1.19 0 00-1.2-1.178A1.19 1.19 0 000 1.744v3.538c0 2.188.882 4.25 2.484 5.812C.856 13.706 0 16.569 0 19.434c0 9.754 9.196 17.69 20.5 17.69S41 29.188 41 19.434c0-2.86-.854-5.72-2.477-8.33C40.053 9.612 41 7.553 41 5.283V1.744zM20.5 4.103c1.914 0 3.802.258 5.6.757a10.807 10.807 0 00-5.593 4.998 10.804 10.804 0 00-5.598-5 20.943 20.943 0 015.591-.755zm0 19.579c.45.732 1.01 1.39 1.661 1.952L20.5 28.71l-1.661-3.076a8.355 8.355 0 001.661-1.952zm-7.207 1.649c-3.312 0-6.006-2.645-6.006-5.897 0-3.251 2.694-5.897 6.006-5.897 3.312 0 6.006 2.646 6.006 5.897 0 3.252-2.694 5.897-6.006 5.897zm8.408-5.897c0-.094.003-.187.007-.28a1.15 1.15 0 00.014-.172v-.022c.247-3.03 2.836-5.423 5.985-5.423 3.312 0 6.006 2.646 6.006 5.897 0 3.252-2.694 5.897-6.006 5.897-3.312 0-6.006-2.645-6.006-5.897zM2.426 5.806A4.967 4.967 0 004.9 6.46h5.992c2.248 0 4.361.86 5.95 2.423a8.137 8.137 0 012.38 4.7 8.452 8.452 0 00-5.175-2.372 1.222 1.222 0 00-.28-.033H8.503a6.21 6.21 0 01-3.525-1.087 1.187 1.187 0 00-.396-.296c-1.202-.976-2.01-2.393-2.156-3.99zm36.172 13.628c0 8.454-8.119 15.331-18.098 15.331-9.98 0-18.098-6.877-18.098-15.33 0-2.36.694-4.732 2.015-6.921a8.568 8.568 0 003.06.963c-1.596 1.504-2.592 3.618-2.592 5.957 0 4.552 3.772 8.255 8.408 8.255a8.49 8.49 0 003.526-.761l2.62 4.852c.208.386.616.627 1.061.627.445 0 .853-.241 1.061-.627l2.62-4.852a8.49 8.49 0 003.526.761c4.636 0 8.408-3.703 8.408-8.255 0-2.338-.995-4.452-2.591-5.956a8.593 8.593 0 003.064-.957c1.318 2.188 2.01 4.556 2.01 6.913zm-2.2-9.619a1.196 1.196 0 00-.357.266 6.184 6.184 0 01-3.53 1.098h-5.263c-.093 0-.184.011-.272.031a8.452 8.452 0 00-5.18 2.358 8.138 8.138 0 012.378-4.684 8.431 8.431 0 015.95-2.423h5.991c.873 0 1.716-.226 2.458-.649-.148 1.606-.963 3.027-2.174 4.003z"/><path d="M13.5 16.683l1.01 2.591h3.27l-2.645 1.602 1.01 2.59-2.645-1.6-2.645 1.6 1.01-2.59-2.645-1.602h3.27l1.01-2.59zM27.5 16.683l1.01 2.591h3.27l-2.645 1.602 1.01 2.59-2.645-1.6-2.645 1.6 1.01-2.59-2.645-1.602h3.27l1.01-2.59z"/></svg>
