<svg width="24" height="23" fill="#787D85" xmlns="http://www.w3.org/2000/svg"><path d="M5.06 3.75h-.002a.73.73 0 00-.502.195.648.648 0 00-.21.476v10.06c0 .369.321.67.716.67 1.666.004 4.457.33 6.382 2.218V6.841a.613.613 0 00-.098-.34C9.766 4.117 6.73 3.754 5.06 3.75zM19.654 14.48V4.42c0-.18-.074-.349-.21-.476a.73.73 0 00-.502-.194h-.001c-1.67.003-4.707.366-6.287 2.752a.613.613 0 00-.098.34v10.527c1.925-1.888 4.716-2.214 6.382-2.217.395-.002.716-.302.716-.671z"/><path d="M21.285 6.07h-.52v8.41c0 .943-.818 1.71-1.825 1.713-1.413.003-3.742.262-5.392 1.726 2.853-.655 5.862-.229 7.576.137a.751.751 0 00.607-.13.652.652 0 00.269-.523V6.74c0-.37-.321-.671-.715-.671zM3.234 14.48V6.07h-.518c-.395 0-.716.3-.716.67v10.662c0 .206.098.397.269.524a.75.75 0 00.607.13c1.714-.366 4.723-.792 7.576-.137-1.65-1.464-3.98-1.723-5.393-1.726-1.006-.002-1.825-.77-1.825-1.712z"/></svg>
